{
  "source": "C:\\Users\\Peter\\Desktop\\stuff\\MIUN\\quantitative_research\\video_compression\\videos\\BVI-HD\\RockWater_1920x1080_30fps.mp4",
  "output": "C:\\Users\\Peter\\Desktop\\stuff\\MIUN\\quantitative_research\\video_compression\\compressed_videos\\BVI-HD\\hevc\\2.5\\RockWater_1920x1080_30fps_hevc.mp4",
  "codec": "hevc",
  "ok": "Input #0, mov,mp4,m4a,3gp,3g2,mj2, from 'C:\\Users\\Peter\\Desktop\\stuff\\MIUN\\quantitative_research\\video_compression\\videos\\BVI-HD\\RockWater_1920x1080_30fps.mp4':\n  Metadata:\n    major_brand     : isom\n    minor_version   : 512\n    compatible_brands: isomiso2avc1mp41\n    encoder         : Lavf54.28.101\n  Duration: 00:00:05.00, start: 0.000000, bitrate: 245943 kb/s\n  Stream #0:0[0x1](und): Video: h264 (High 4:4:4 Predictive) (avc1 / 0x31637661), yuv420p(progressive), 1920x1080, 245940 kb/s, 30 fps, 30 tbr, 30 tbn (default)\n    Metadata:\n      handler_name    : VideoHandler\n      vendor_id       : [0][0][0][0]\n[out#0/mp4 @ 000001c065051440] Codec AVOption b:a (set bitrate (in bits/s)) has not been used for any stream. The most likely reason is either wrong type (e.g. a video option with no video streams) or that it is a private option of some decoder which was not actually used for any stream.\nStream mapping:\n  Stream #0:0 -> #0:0 (h264 (native) -> hevc (libx265))\nPress [q] to stop, [?] for help\n[libx265 @ 000001c0659047c0] Unknown option: \"aq-mode.\nx265 [info]: HEVC encoder version 4.1+190-8f11c33ac\nx265 [info]: build info [Windows][GCC 15.1.0][64 bit] 10bit\nx265 [info]: using cpu capabilities: MMX2 SSE2Fast LZCNT SSSE3 SSE4.2 AVX FMA3 BMI2 AVX2\nx265 [info]: Main 10 profile, Level-4 (Main tier)\nx265 [info]: Thread pool created using 12 threads\nx265 [info]: Slices                              : 1\nx265 [info]: frame threads / pool features       : 3 / wpp(17 rows)\nx265 [info]: Coding QT: max CU size, min CU size : 64 / 8\nx265 [info]: Residual QT: max TU size, max depth : 32 / 1 inter / 1 intra\nx265 [info]: ME / range / subpel / merge         : star / 57 / 3 / 3\nx265 [info]: Keyframe min / max / scenecut / bias  : 25 / 250 / 40 / 5.00 \nx265 [info]: Lookahead / bframes / badapt        : 25 / 4 / 2\nx265 [info]: b-pyramid / weightp / weightb       : 1 / 1 / 0\nx265 [info]: References / ref-limit  cu / depth  : 4 / on / on\nx265 [info]: AQ: mode / str / qg-size / cu-tree  : 2 / 1.0 / 32 / 1\nx265 [info]: Rate Control / qCompress            : ABR-2500 kbps / 0.60\nx265 [info]: VBV/HRD buffer / max-rate / init    : 2500 / 2500 / 0.750\nx265 [info]: tools: rect limit-modes rd=4 psy-rd=2.00 rdoq=2 psy-rdoq=1.00\nx265 [info]: tools: rskip mode=1 signhide tmvp strong-intra-smoothing lslices=4\nx265 [info]: tools: deblock sao dhdr10-info\nOutput #0, mp4, to 'C:\\Users\\Peter\\Desktop\\stuff\\MIUN\\quantitative_research\\video_compression\\compressed_videos\\BVI-HD\\hevc\\2.5\\RockWater_1920x1080_30fps_hevc.mp4':\n  Metadata:\n    major_brand     : isom\n    minor_version   : 512\n    compatible_brands: isomiso2avc1mp41\n    encoder         : Lavf62.3.100\n  Stream #0:0(und): Video: hevc (hev1 / 0x31766568), yuv420p10le(tv, progressive), 1920x1080, q=2-31, 2500 kb/s, 30 fps, 15360 tbn (default)\n    Metadata:\n      encoder         : Lavc62.11.100 libx265\n      handler_name    : VideoHandler\n      vendor_id       : [0][0][0][0]\n    Side data:\n      cpb: bitrate max/min/avg: 2500000/0/2500000 buffer size: 2500000 vbv_delay: N/A\nframe=    0 fps=0.0 q=0.0 size=       0KiB time=N/A bitrate=N/A speed=N/A elapsed=0:00:00.51    \nframe=    0 fps=0.0 q=0.0 size=       0KiB time=N/A bitrate=N/A speed=N/A elapsed=0:00:01.03    \nframe=    0 fps=0.0 q=0.0 size=       0KiB time=N/A bitrate=N/A speed=N/A elapsed=0:00:01.55    \nframe=    1 fps=0.5 q=36.9 size=       0KiB time=-00:00:00.03 bitrate=N/A speed=N/A elapsed=0:00:02.07    \nframe=    3 fps=1.2 q=44.3 size=       0KiB time=00:00:00.03 bitrate=  10.6kbits/s speed=0.0129x elapsed=0:00:02.58    \nframe=    5 fps=1.6 q=39.8 size=       0KiB time=00:00:00.10 bitrate=   3.5kbits/s speed=0.0323x elapsed=0:00:03.10    \nframe=    7 fps=1.9 q=44.2 size=       0KiB time=00:00:00.16 bitrate=   2.1kbits/s speed=0.0461x elapsed=0:00:03.61    \nframe=    9 fps=2.2 q=39.9 size=       0KiB time=00:00:00.23 bitrate=   1.5kbits/s speed=0.0565x elapsed=0:00:04.13    \nframe=   10 fps=2.2 q=41.8 size=       0KiB time=00:00:00.26 bitrate=   1.3kbits/s speed=0.0574x elapsed=0:00:04.64    \nframe=   13 fps=2.5 q=40.7 size=       0KiB time=00:00:00.36 bitrate=   1.0kbits/s speed=0.0709x elapsed=0:00:05.16    \nframe=   14 fps=2.5 q=42.6 size=       0KiB time=00:00:00.40 bitrate=   0.9kbits/s speed=0.0705x elapsed=0:00:05.67    \nframe=   16 fps=2.6 q=39.5 size=       0KiB time=00:00:00.46 bitrate=   0.8kbits/s speed=0.0754x elapsed=0:00:06.19    \nframe=   19 fps=2.8 q=39.5 size=       0KiB time=00:00:00.56 bitrate=   0.6kbits/s speed=0.0844x elapsed=0:00:06.71    \nframe=   21 fps=2.9 q=43.2 size=       0KiB time=00:00:00.63 bitrate=   0.6kbits/s speed=0.0876x elapsed=0:00:07.22    \nframe=   23 fps=3.0 q=43.3 size=       0KiB time=00:00:00.70 bitrate=   0.5kbits/s speed=0.0904x elapsed=0:00:07.74    \nframe=   25 fps=3.0 q=41.4 size=     256KiB time=00:00:00.76 bitrate=2735.9kbits/s speed=0.0928x elapsed=0:00:08.25    \nframe=   26 fps=3.0 q=43.0 size=     256KiB time=00:00:00.80 bitrate=2621.9kbits/s speed=0.0912x elapsed=0:00:08.77    \nframe=   29 fps=3.1 q=41.1 size=     256KiB time=00:00:00.90 bitrate=2330.6kbits/s speed=0.0969x elapsed=0:00:09.29    \nframe=   30 fps=3.1 q=42.9 size=     256KiB time=00:00:00.93 bitrate=2247.3kbits/s speed=0.0952x elapsed=0:00:09.80    \nframe=   33 fps=3.2 q=42.9 size=     256KiB time=00:00:01.03 bitrate=2029.8kbits/s speed= 0.1x elapsed=0:00:10.32    \nframe=   34 fps=3.1 q=42.9 size=     256KiB time=00:00:01.06 bitrate=1966.4kbits/s speed=0.0984x elapsed=0:00:10.83    \nframe=   37 fps=3.3 q=40.9 size=     256KiB time=00:00:01.16 bitrate=1797.9kbits/s speed=0.103x elapsed=0:00:11.36    \nframe=   38 fps=3.2 q=42.5 size=     256KiB time=00:00:01.20 bitrate=1747.9kbits/s speed=0.101x elapsed=0:00:11.86    \nframe=   40 fps=3.2 q=38.7 size=     256KiB time=00:00:01.26 bitrate=1655.9kbits/s speed=0.102x elapsed=0:00:12.39    \nframe=   42 fps=3.3 q=38.5 size=     256KiB time=00:00:01.33 bitrate=1573.1kbits/s speed=0.103x elapsed=0:00:12.89    \nframe=   45 fps=3.4 q=42.9 size=     256KiB time=00:00:01.43 bitrate=1463.4kbits/s speed=0.107x elapsed=0:00:13.41    \nframe=   47 fps=3.4 q=38.5 size=     256KiB time=00:00:01.50 bitrate=1398.3kbits/s speed=0.108x elapsed=0:00:13.93    \nframe=   49 fps=3.4 q=42.7 size=     256KiB time=00:00:01.56 bitrate=1338.8kbits/s speed=0.108x elapsed=0:00:14.44    \nframe=   52 fps=3.5 q=41.5 size=     512KiB time=00:00:01.66 bitrate=2516.8kbits/s speed=0.111x elapsed=0:00:14.96    \nframe=   54 fps=3.5 q=43.4 size=     512KiB time=00:00:01.73 bitrate=2420.0kbits/s speed=0.112x elapsed=0:00:15.48    \nframe=   57 fps=3.6 q=43.4 size=     512KiB time=00:00:01.83 bitrate=2288.0kbits/s speed=0.115x elapsed=0:00:16.00    \nframe=   59 fps=3.6 q=38.3 size=     512KiB time=00:00:01.90 bitrate=2207.7kbits/s speed=0.115x elapsed=0:00:16.52    \nframe=   62 fps=3.6 q=38.1 size=     512KiB time=00:00:02.00 bitrate=2097.3kbits/s speed=0.117x elapsed=0:00:17.04    \nframe=   65 fps=3.7 q=42.6 size=     512KiB time=00:00:02.10 bitrate=1997.5kbits/s speed=0.12x elapsed=0:00:17.55    \nframe=   68 fps=3.8 q=42.8 size=     512KiB time=00:00:02.20 bitrate=1906.7kbits/s speed=0.122x elapsed=0:00:18.06    \nframe=   70 fps=3.8 q=43.2 size=     512KiB time=00:00:02.26 bitrate=1850.6kbits/s speed=0.122x elapsed=0:00:18.58    \nframe=   73 fps=3.8 q=42.4 size=     512KiB time=00:00:02.36 bitrate=1772.4kbits/s speed=0.124x elapsed=0:00:19.09    \nframe=   76 fps=3.9 q=41.1 size=     512KiB time=00:00:02.46 bitrate=1700.5kbits/s speed=0.126x elapsed=0:00:19.61    \nframe=   79 fps=3.9 q=40.9 size=     768KiB time=00:00:02.56 bitrate=2451.4kbits/s speed=0.127x elapsed=0:00:20.13    \nframe=   81 fps=3.9 q=38.2 size=     768KiB time=00:00:02.63 bitrate=2389.3kbits/s speed=0.128x elapsed=0:00:20.64    \nframe=   84 fps=4.0 q=42.1 size=     768KiB time=00:00:02.73 bitrate=2301.9kbits/s speed=0.129x elapsed=0:00:21.16    \nframe=   87 fps=4.0 q=40.1 size=     768KiB time=00:00:02.83 bitrate=2220.6kbits/s speed=0.131x elapsed=0:00:21.67    \nframe=   90 fps=4.1 q=41.0 size=     768KiB time=00:00:02.93 bitrate=2144.9kbits/s speed=0.132x elapsed=0:00:22.20    \nframe=   93 fps=4.1 q=42.3 size=     768KiB time=00:00:03.03 bitrate=2074.2kbits/s speed=0.134x elapsed=0:00:22.71    \nframe=   96 fps=4.1 q=42.5 size=     768KiB time=00:00:03.13 bitrate=2008.0kbits/s speed=0.135x elapsed=0:00:23.22    \nframe=   98 fps=4.1 q=42.8 size=     768KiB time=00:00:03.20 bitrate=1966.2kbits/s speed=0.135x elapsed=0:00:23.74    \nframe=  101 fps=4.2 q=42.8 size=     768KiB time=00:00:03.30 bitrate=1906.6kbits/s speed=0.136x elapsed=0:00:24.25    \nframe=  104 fps=4.2 q=37.9 size=    1024KiB time=00:00:03.40 bitrate=2467.3kbits/s speed=0.137x elapsed=0:00:24.78    \nframe=  107 fps=4.2 q=41.2 size=    1024KiB time=00:00:03.50 bitrate=2396.8kbits/s speed=0.138x elapsed=0:00:25.28    \nframe=  110 fps=4.3 q=38.5 size=    1024KiB time=00:00:03.60 bitrate=2330.3kbits/s speed=0.139x elapsed=0:00:25.80    \nframe=  112 fps=4.3 q=43.1 size=    1024KiB time=00:00:03.66 bitrate=2287.9kbits/s speed=0.139x elapsed=0:00:26.32    \nframe=  115 fps=4.3 q=43.4 size=    1024KiB time=00:00:03.76 bitrate=2227.2kbits/s speed=0.14x elapsed=0:00:26.83    \nframe=  117 fps=4.3 q=38.7 size=    1024KiB time=00:00:03.83 bitrate=2188.4kbits/s speed=0.14x elapsed=0:00:27.34    \nframe=  120 fps=4.3 q=43.1 size=    1024KiB time=00:00:03.93 bitrate=2132.8kbits/s speed=0.141x elapsed=0:00:27.86    \nframe=  122 fps=4.3 q=39.1 size=    1024KiB time=00:00:04.00 bitrate=2097.2kbits/s speed=0.141x elapsed=0:00:28.37    \nframe=  124 fps=4.3 q=43.6 size=    1024KiB time=00:00:04.06 bitrate=2062.9kbits/s speed=0.141x elapsed=0:00:28.89    \nframe=  127 fps=4.3 q=39.5 size=    1024KiB time=00:00:04.16 bitrate=2013.4kbits/s speed=0.142x elapsed=0:00:29.42    \nframe=  129 fps=4.3 q=43.8 size=    1280KiB time=00:00:04.23 bitrate=2477.0kbits/s speed=0.141x elapsed=0:00:29.93    \nframe=  132 fps=4.3 q=42.3 size=    1280KiB time=00:00:04.33 bitrate=2419.9kbits/s speed=0.142x elapsed=0:00:30.45    \nframe=  134 fps=4.3 q=44.1 size=    1280KiB time=00:00:04.40 bitrate=2383.2kbits/s speed=0.142x elapsed=0:00:30.96    \nframe=  137 fps=4.4 q=44.3 size=    1280KiB time=00:00:04.50 bitrate=2330.2kbits/s speed=0.143x elapsed=0:00:31.47    \nframe=  140 fps=4.4 q=41.0 size=    1280KiB time=00:00:04.60 bitrate=2279.6kbits/s speed=0.144x elapsed=0:00:31.99    \nframe=  142 fps=4.4 q=43.8 size=    1280KiB time=00:00:04.66 bitrate=2247.0kbits/s speed=0.144x elapsed=0:00:32.50    \nframe=  145 fps=4.4 q=41.4 size=    1280KiB time=00:00:04.76 bitrate=2199.9kbits/s speed=0.144x elapsed=0:00:33.01    \nframe=  149 fps=4.4 q=42.2 size=    1280KiB time=00:00:04.90 bitrate=2140.0kbits/s speed=0.146x elapsed=0:00:33.54    \n[mp4 @ 000001c065051580] Starting second pass: moving the moov atom to the beginning of the file\n[out#0/mp4 @ 000001c065051440] video:1485KiB audio:0KiB subtitle:0KiB other streams:0KiB global headers:2KiB muxing overhead: 0.345151%\nframe=  150 fps=4.5 q=42.3 Lsize=    1490KiB time=00:00:04.93 bitrate=2474.2kbits/s speed=0.147x elapsed=0:00:33.64    \nx265 [info]: frame I:      1, Avg QP:36.88  kb/s: 8887.20 \nx265 [info]: frame P:     39, Avg QP:39.03  kb/s: 4297.87 \nx265 [info]: frame B:    110, Avg QP:42.54  kb/s: 1711.54 \nx265 [info]: Weighted P-Frames: Y:15.4% UV:12.8%\n\nencoded 150 frames in 33.35s (4.50 fps), 2431.83 kb/s, Avg QP:41.59\n",
  "seconds": 33.88902831077576,
  "probe_out": {}
}